<?xml version="1.0" encoding="utf-8"?>
<!-- Generator: Adobe Illustrator 27.4.0, SVG Export Plug-In . SVG Version: 6.00 Build 0)  -->
<svg  width="611" height="569" version="1.1" id="Layer_1" xmlns="http://www.w3.org/2000/svg" xmlns:xlink="http://www.w3.org/1999/xlink" x="0px" y="0px"
	 viewBox="0 0 611 569" style="enable-background:new 0 0 611 569;" xml:space="preserve">
<style type="text/css">
	.st0{fill:url(#SVGID_1_);fill-opacity:0.3;}
	.st1{fill:url(#SVGID_00000005966121286230991100000018108175892027578756_);}
	.st2{fill:#E2EAFB;}
	.st3{fill:#BDCEF7;}
	.st4{fill:#A2AECC;}
	.st5{fill:#FE9F73;}
	.st6{fill:#4E5F6D;}
	.st7{fill:#FFB27D;}
	.st8{fill:#163560;}
	.st9{fill:#F07162;}
	.st10{fill:#FFFFFF;}
	.st11{fill:#536573;}
	.st12{fill:#5D7080;}
	.st13{fill:url(#SVGID_00000177465054976546085160000009081038914091155097_);}
	.st14{fill:url(#SVGID_00000166660311030082316450000015091842237405180039_);}
	.st15{fill:url(#SVGID_00000132051855838798659380000012924499898491084204_);}
	.st16{fill:url(#SVGID_00000183928427802626711590000000900414580678788286_);}
	.st17{fill:none;}
	.st18{fill:url(#SVGID_00000153670607989282787830000010608821791114719933_);}
	.st19{fill:#FFCBB4;}
	.st20{fill:#F0AF86;}
	.st21{fill:url(#SVGID_00000082335523825591309410000001893775476109542563_);}
	.st22{fill:url(#SVGID_00000167378301799853366270000007188217240071421824_);}
	.st23{fill:url(#SVGID_00000024002648000001603450000006024837389927954872_);}
	.st24{fill:url(#SVGID_00000116201308447152568720000002653697567764095362_);}
	.st25{fill:#FF6E42;}
	.st26{opacity:0.1;fill:#FFFFFF;enable-background:new    ;}
	.st27{fill:url(#SVGID_00000076595386618834644120000011781794402892584073_);}
	.st28{fill:#FCA56B;}
	.st29{fill:url(#SVGID_00000118358158396037743240000008634905792122085273_);}
	.st30{fill:#1D1D1B;}
	.st31{fill:#5B6E7E;}
	.st32{fill:url(#SVGID_00000176002594596241898690000002850954023093651081_);}
	.st33{fill:url(#SVGID_00000147188673306571504440000016005579285532724872_);}
	.st34{fill:#C74634;}
	.st35{clip-path:url(#SVGID_00000031170666984953994370000000831319517611865989_);}
	.st36{clip-path:url(#SVGID_00000155131316842393980450000000788672792772868746_);fill:#FF5F3B;}
	.st37{fill:url(#SVGID_00000041258931669121550780000017434473031955576459_);}
</style>
<g>
	
		<linearGradient id="SVGID_1_" gradientUnits="userSpaceOnUse" x1="328.5995" y1="410" x2="328.5995" y2="161.969" gradientTransform="matrix(1 0 0 -1 0 570)">
		<stop  offset="0.1406" style="stop-color:#FF6E42"/>
		<stop  offset="0.5623" style="stop-color:#E04FA6"/>
		<stop  offset="0.6704" style="stop-color:#D847C0"/>
		<stop  offset="0.9271" style="stop-color:#9867F9"/>
	</linearGradient>
	<path class="st0" d="M206.69,284.02c0,68.49,54.58,124.02,121.91,124.02s121.91-55.52,121.91-124.02S395.93,160,328.6,160
		S206.69,215.52,206.69,284.02z"/>
</g>
<linearGradient id="SVGID_00000111907190717133811900000006694100343187193014_" gradientUnits="userSpaceOnUse" x1="275" y1="269.3042" x2="115.5" y2="269.3042" gradientTransform="matrix(1 0 0 -1 0 570)">
	<stop  offset="0" style="stop-color:#3A3B7C"/>
	<stop  offset="1" style="stop-color:#CBDBFF;stop-opacity:0"/>
</linearGradient>
<path style="fill:url(#SVGID_00000111907190717133811900000006694100343187193014_);" d="M323.85,310.21H103.28
	c-0.44-6.07-0.81-12.34-1.08-18.8c38.75-0.03,97.23-0.05,103.83-0.07c51.19,0,63.13-0.77,82.32,1.01
	c19.18,1.78,33.62,5.46,38.15,9.93C329.62,305.38,327.41,308.17,323.85,310.21L323.85,310.21z"/>
<path class="st2" d="M252.52,310.45h75.46v-75.46h-75.46V310.45z"/>
<path class="st3" d="M252.52,234.99h75.46l-28.95-18.23h-75.46L252.52,234.99z"/>
<path class="st4" d="M223.69,292.34l28.84,18.12v-75.46l-28.84-18.12V292.34z"/>
<path class="st2" d="M314.03,242.39l-0.25,0.21l6.15,7.17l0.24-0.21L314.03,242.39z"/>
<path class="st2" d="M314.03,247.7l-0.25,0.21l6.15,7.18l0.24-0.21L314.03,247.7z"/>
<path class="st5" d="M245.58,239c0.76-0.87,2-2.48,2.33-3.18c0.03-0.07,0.05-0.12,0.07-0.17c0,0,0,0,0-0.01
	c0-0.01,0.01-0.03,0.01-0.04c0.04-0.22,0.1-0.46,0.2-0.71c0.18-0.82,0.25-1.69,0.37-1.94c0.1-0.23,0.55-0.49,0.84-0.65
	c0.24-0.13,0.38-0.41,0.3-0.68c-0.04-0.15-0.16-0.3-0.4-0.36c0,0,0.21-0.75-0.47-0.84c0,0,0.25-0.82-0.84-0.69
	c0,0-0.08-0.47-0.59-0.48c-0.52-0.02-1.63,0.45-1.79,0.59c-0.16,0.14-1.85,2.45-1.85,2.45s-1.52,3.18-1.64,3.33L245.58,239
	L245.58,239z"/>
<path class="st5" d="M181.77,295.05l3.79-4.1c0,0-3.45-1.02-3.59-0.99c-0.14,0.03-3.09,1.02-3.09,1.02s-0.81,1.44-0.77,2.02
	c0.03,0.58,0.34,1.95,0.96,2.33c0.61,0.38,0.72,0.65,1.26,0.44C180.88,295.57,181.77,295.05,181.77,295.05L181.77,295.05z"/>
<path class="st5" d="M214.25,299.28l-4.96,0.02l-0.01-1.38l1.95-5.13l5.76,0.65L214.25,299.28z"/>
<path class="st6" d="M209.24,299.69h5.41l2.19-2.39l4.01,2.39h0.86c0.3,0,0.57,0.2,0.63,0.49c0.07,0.39-0.23,0.74-0.6,0.74h-12.57
	c-0.09,0-0.17-0.08-0.17-0.17v-0.82C208.99,299.8,209.1,299.69,209.24,299.69L209.24,299.69z"/>
<path class="st6" d="M209.28,299.7v-2.22c0,0,0.91-1.23,2.3-0.6c0,0,2.1,1.49,3.95-0.31l4.59,2.04c0,0,1.26,0.42,1.6,1.1H209.28
	L209.28,299.7z"/>
<path class="st7" d="M238.63,216.48l-3.2,4.25c0,0-1.02,1.48-2.42,0.71l-1.21,2.09c-0.45,0.78-1.39,1.14-2.24,0.84
	c-0.41-0.15-0.87-0.37-1.32-0.71c-1.43-1.08-1.4-2.74-1.12-3.37c0.29-0.63,2.58-2.93,2.58-2.93l0.91-1.3l3.85-4.78L238.63,216.48
	L238.63,216.48z"/>
<path class="st8" d="M234.46,211.65l-0.07,2.17c0,0,2.15,3.46,4.75,3.24c2.61-0.23,2.63-1.26,2.7-2.3c0.04-0.51-0.51-2.02-2.27-2.43
	c-0.96-0.22-0.77-1.57-1.97-1.73c-1.2-0.15-2.81-0.07-2.95,0.34C234.53,211.36,234.46,211.65,234.46,211.65z"/>
<path class="st8" d="M234.97,211.1c0,0-1.33-1.11-2.72-0.07c-1.39,1.04-1.39,2.13-1.68,2.53c-0.29,0.41-2.57,2.88-0.54,4.09
	l3.83-4.03l0.67-2.25L234.97,211.1z"/>
<path class="st7" d="M233.15,215.96c-0.45,0.6-1.29,0.71-1.89,0.27c-0.6-0.45-0.71-1.29-0.27-1.89c0.45-0.59,1.29-0.71,1.89-0.27
	C233.48,214.53,233.6,215.37,233.15,215.96z"/>
<path class="st9" d="M231.02,218.02c0,0-1.73,2.47,1.1,4.96l0.89-1.54C233.01,221.44,230.77,220.37,231.02,218.02z"/>
<path class="st8" d="M236.14,220.21c0,0-1.78,3.17-3.76,1.84c-2.84-1.91-1.93-3.67-1.13-5.07l1.96-2.66l0.66-0.7
	c0.03,0.36-0.06,0.73-0.25,1.04c-0.42,0.68-1.56,2.48-1.46,2.68C232.3,217.61,235.93,219.61,236.14,220.21L236.14,220.21z"/>
<path class="st10" d="M226.49,219.07l3.92,8.95l1.28-3.34l-2.68-6.85L226.49,219.07z"/>
<path class="st11" d="M208.29,259.36c0,0,8.64,7.54,15.82,9.46l-13.9,24.22c0,0,2.9,3.1,7.71,3.1c0,0,19.01-27.7,19.01-30.94
	c0-2.32-16.43-13.17-16.43-13.17l-12.21,3.53L208.29,259.36L208.29,259.36z"/>
<path class="st12" d="M177.96,290.03l27.14-45.87l8.03-0.5l7.37,8.38c0,0-3.12,4.48-8.14,9.09c-5.02,4.61-10.86,8.75-17.03,18.25
	c-6.17,9.5-9.97,15.06-9.97,15.06S180.94,292.68,177.96,290.03L177.96,290.03z"/>
<linearGradient id="SVGID_00000081617755990178653980000000066602212451026317_" gradientUnits="userSpaceOnUse" x1="205.096" y1="334.2162" x2="246.485" y2="334.2162" gradientTransform="matrix(1 0 0 -1 0 570)">
	<stop  offset="0.1406" style="stop-color:#FF6E42"/>
	<stop  offset="0.5573" style="stop-color:#D847C0"/>
	<stop  offset="0.9271" style="stop-color:#9867F9"/>
</linearGradient>
<path style="fill:url(#SVGID_00000081617755990178653980000000066602212451026317_);" d="M221.26,252.6c0,0,1.31-7.83,2.46-9.18
	c1.15-1.36,2.24-2.26,2.24-2.26c1.7,3.74,4.69,9.04,5.6,9.52c1.56,0.81,5.43-1.56,8.48-4.95c3.05-3.39,6.45-6.99,6.45-6.99
	l-3.8-4.61l-5.36,4.74l-2.85,2.52c0,0-3.94-15.81-4.95-19.34c-1.02-3.53-3.73-3.05-3.73-3.05c-3.93,0.68-20.69,25.17-20.69,25.17
	s4.36,1.31,5.84,1.97C215.21,248.03,215.51,252.35,221.26,252.6L221.26,252.6z"/>
<path class="st6" d="M184.19,300.02h-5.14l-3-7.92c-0.15-0.4,0.11-0.83,0.53-0.88l2.35-0.28c0,0,0.25,3.34,2.84,4.1l-0.44,2.64
	c1.24,0.47,1.55,0.38,2.85,1.07C184.91,299.15,184.19,300.03,184.19,300.02L184.19,300.02z"/>
<path class="st5" d="M179.77,293.34l0.12,0.68c0,0,0.2,0.46,0.42,0.6l0.3,0.17l0.55,0.19l0.52,0.07l0.02-0.27L179.77,293.34
	L179.77,293.34z"/>
<path class="st9" d="M234.52,219.77c-0.01,0-0.02-0.01-0.03-0.01c-0.24-0.32-1.42-0.53-1.43-0.53c-0.02,0-0.04-0.02-0.03-0.04
	s0.02-0.04,0.04-0.03c0.05,0.01,1.21,0.21,1.48,0.56c0.01,0.02,0.01,0.04-0.01,0.06C234.54,219.76,234.53,219.77,234.52,219.77
	L234.52,219.77z"/>
<linearGradient id="SVGID_00000087390404727723912720000014831016607379245491_" gradientUnits="userSpaceOnUse" x1="146.9644" y1="308.5102" x2="21.4644" y2="311.5102" gradientTransform="matrix(1 0 0 -1 0 570)">
	<stop  offset="0" style="stop-color:#3A3B7C"/>
	<stop  offset="1" style="stop-color:#CBDBFF;stop-opacity:0"/>
</linearGradient>
<path style="fill:url(#SVGID_00000087390404727723912720000014831016607379245491_);" d="M184.58,266.95H21.75
	c-0.33-4.48-0.6-9.11-0.8-13.88c28.61-0.02,71.77-0.04,76.65-0.05c37.79,0,46.6-0.57,60.77,0.74c14.16,1.31,24.82,4.03,28.16,7.33
	C188.84,263.38,187.2,265.44,184.58,266.95L184.58,266.95z"/>
<path class="st2" d="M131.93,267.13h55.71v-55.71h-55.71V267.13z"/>
<path class="st3" d="M131.92,211.42h55.71l-21.37-13.46h-55.71L131.92,211.42z"/>
<path class="st4" d="M110.64,253.75l21.29,13.38v-55.71l-21.29-13.38V253.75z"/>
<path class="st2" d="M177.33,216.88l-0.18,0.15l4.54,5.3l0.18-0.15L177.33,216.88z"/>
<path class="st2" d="M177.33,220.8l-0.18,0.15l4.54,5.3l0.18-0.16L177.33,220.8z"/>
<path class="st5" d="M112.43,209.53c0.39,0.24,0.85-0.75,1.01-1.04c0.02-0.03,0.03-0.05,0.04-0.07l0,0c0-0.01,0-0.01,0.01-0.02
	c0.03-0.1,0.08-0.2,0.13-0.3c0.14-0.36,0.25-0.74,0.3-0.85c0.05-0.1,0.21-0.19,0.31-0.24c0.08-0.04,0.15-0.16,0.16-0.28
	c0-0.07-0.01-0.14-0.08-0.19c0,0,0.14-0.32-0.05-0.41c0,0,0.15-0.35-0.17-0.37c0,0,0.03-0.22-0.12-0.26
	c-0.15-0.04-0.51,0.1-0.57,0.15c-0.06,0.05-0.78,0.98-0.78,0.98s-0.76,1.33-0.81,1.39l-1.71,0.56L112.43,209.53z"/>
<linearGradient id="SVGID_00000176003040700995065390000010451519333924571537_" gradientUnits="userSpaceOnUse" x1="98.623" y1="358.87" x2="112.1657" y2="358.87" gradientTransform="matrix(1 0 0 -1 0 570)">
	<stop  offset="0.1406" style="stop-color:#FF6E42"/>
	<stop  offset="0.5573" style="stop-color:#D847C0"/>
	<stop  offset="0.9271" style="stop-color:#9867F9"/>
</linearGradient>
<path style="fill:url(#SVGID_00000176003040700995065390000010451519333924571537_);" d="M111.89,207.97
	c-3.58,1.05-11.24,3.41-13.26,4.42v1.89c4.21-1.26,12.76-3.92,13.26-4.42C112.39,209.36,112.1,208.39,111.89,207.97z"/>
<path class="st5" d="M113.78,211.76c0.45,0.08,0.5-1.01,0.55-1.35c0-0.03,0.01-0.06,0.01-0.08l0,0c0-0.01,0-0.01,0-0.02
	c-0.01-0.1,0-0.21,0-0.33c-0.01-0.38-0.05-0.78-0.04-0.9c0.01-0.11,0.12-0.25,0.2-0.34c0.06-0.07,0.08-0.21,0.04-0.32
	c-0.03-0.07-0.07-0.13-0.14-0.15c0,0,0.01-0.35-0.2-0.36c0,0,0.01-0.38-0.3-0.27c0,0-0.06-0.21-0.21-0.19
	c-0.15,0.02-0.44,0.28-0.48,0.35c-0.04,0.07-0.36,1.2-0.36,1.2s-0.21,1.52-0.23,1.6l-1.37,1.16H113.78z"/>
<path class="st5" d="M70.49,252.91l2.27-2.46c0,0-2.07-0.61-2.15-0.59c-0.08,0.02-1.85,0.61-1.85,0.61s-0.48,0.86-0.46,1.21
	c0.02,0.35,0.2,1.17,0.57,1.39c0.37,0.23,0.43,0.39,0.76,0.27C69.96,253.22,70.49,252.91,70.49,252.91L70.49,252.91z"/>
<path class="st5" d="M89.95,255.44l-2.97,0.01l-0.01-0.83l1.17-3.07l3.45,0.39L89.95,255.44z"/>
<path class="st6" d="M86.94,255.69h3.24l1.31-1.43l2.4,1.43h0.52c0.18,0,0.34,0.12,0.38,0.3c0.04,0.24-0.13,0.44-0.36,0.44H86.9
	c-0.05,0-0.1-0.05-0.1-0.1v-0.49C86.8,255.75,86.86,255.69,86.94,255.69L86.94,255.69z"/>
<path class="st6" d="M86.97,255.69v-1.33c0,0,0.55-0.73,1.38-0.36c0,0,1.26,0.89,2.36-0.19l2.75,1.22c0,0,0.75,0.25,0.96,0.66H86.97
	L86.97,255.69z"/>
<path class="st7" d="M107.06,209.68l-3.63,1.81c0,0-1.2,0.66-1.89-0.34l-1.54,1.02c-0.57,0.38-1.34,0.3-1.81-0.19
	c-0.23-0.24-0.47-0.55-0.66-0.94c-0.61-1.23-0.02-2.35,0.39-2.68c0.41-0.33,2.76-1.12,2.76-1.12l1.06-0.58l4.26-1.94L107.06,209.68
	L107.06,209.68z"/>
<path class="st8" d="M104.47,204.59l-0.12,2.11c0,0,1.12,3.41,2.64,3.26c1.53-0.16,1.58-1.16,1.66-2.17
	c0.04-0.5-0.22-1.98-1.23-2.41c-0.55-0.24-0.39-1.55-1.08-1.72c-0.69-0.18-1.63-0.13-1.73,0.27
	C104.52,204.32,104.47,204.59,104.47,204.59z"/>
<path class="st8" d="M106.4,204.75c0,0-0.53-1.21-1.83-0.97c-1.3,0.24-1.68,0.98-2.01,1.16c-0.33,0.18-2.73,1.09-1.76,2.61
	l3.99-1.45l1.23-1.31L106.4,204.75z"/>
<path class="st7" d="M103.5,207.46c-0.51,0.25-1.13,0.05-1.38-0.46c-0.25-0.51-0.05-1.13,0.46-1.38c0.51-0.25,1.13-0.05,1.38,0.46
	C104.21,206.59,104.01,207.2,103.5,207.46z"/>
<path class="st9" d="M101.34,208.13c0,0-2.02,1.1-0.94,3.76l1.13-0.75C101.53,211.15,100.37,209.65,101.34,208.13z"/>
<path class="st10" d="M98.49,207.59l-0.29,5.85l1.58-1.45l0.4-4.39L98.49,207.59z"/>
<path class="st11" d="M86.38,231.53c0,0,5.17,4.52,9.48,5.66l-8.32,14.51c0,0,1.73,1.86,4.62,1.86c0,0,11.38-16.59,11.39-18.53
	c0-1.39-9.84-7.89-9.84-7.89l-7.32,2.11L86.38,231.53L86.38,231.53z"/>
<path class="st12" d="M68.21,249.9l16.26-27.47l4.81-0.3l4.42,5.02c0,0-1.87,2.68-4.88,5.45c-3.01,2.76-6.5,5.24-10.2,10.93
	c-3.7,5.69-5.97,9.02-5.97,9.02S70,251.49,68.21,249.9L68.21,249.9z"/>
<path class="st6" d="M71.94,255.89h-3.08l-1.8-4.74c-0.09-0.24,0.07-0.5,0.32-0.53l1.41-0.17c0,0,0.15,2,1.7,2.46l-0.26,1.58
	c0.74,0.28,0.93,0.23,1.71,0.64C72.38,255.36,71.94,255.89,71.94,255.89L71.94,255.89z"/>
<path class="st5" d="M69.3,251.88l0.07,0.41c0,0,0.12,0.28,0.25,0.36l0.18,0.1l0.33,0.11l0.31,0.04l0.01-0.16L69.3,251.88
	L69.3,251.88z"/>
<linearGradient id="SVGID_00000098901862224211179290000001704160447602344107_" gradientUnits="userSpaceOnUse" x1="84.0957" y1="352.5825" x2="113.781" y2="352.5825" gradientTransform="matrix(1 0 0 -1 0 570)">
	<stop  offset="0.1406" style="stop-color:#FF6E42"/>
	<stop  offset="0.5573" style="stop-color:#D847C0"/>
	<stop  offset="0.9271" style="stop-color:#9867F9"/>
</linearGradient>
<path style="fill:url(#SVGID_00000098901862224211179290000001704160447602344107_);" d="M90.41,226.29
	c1.26,1.9,2.53,1.26,3.79,1.26c0-0.84,0.25-3.03,1.26-5.05c1.01-2.02,2.11-3.79,2.53-4.42l15.79-6.32l-0.63-2.53l-13.26,3.16
	l-1.26-4.42c0.42,0.21,0.63-1.26-1.26-0.63c-2.53-0.63-4.42,1.26-5.05,1.9c-0.51,0.51-5.68,9.05-8.21,13.26
	C85.78,223.13,89.4,224.77,90.41,226.29z"/>
<rect x="268.84" y="255" class="st17" width="42.34" height="43.07"/>
<linearGradient id="SVGID_00000052800470922123871860000005703018335819427739_" gradientUnits="userSpaceOnUse" x1="513.5159" y1="219.6942" x2="265.441" y2="219.6942" gradientTransform="matrix(1 0 0 -1 0 570)">
	<stop  offset="0" style="stop-color:#FF6E42"/>
	<stop  offset="1.000000e-04" style="stop-color:#EE4E1E"/>
	<stop  offset="0.16" style="stop-color:#EE4E1E"/>
	<stop  offset="0.33" style="stop-color:#FF6E42"/>
	<stop  offset="0.48" style="stop-color:#FF6E42"/>
	<stop  offset="0.63" style="stop-color:#FFC6A0;stop-opacity:0.66"/>
	<stop  offset="0.77" style="stop-color:#FFDDC0;stop-opacity:0.71"/>
	<stop  offset="0.9" style="stop-color:#FFEEE1;stop-opacity:0.56"/>
	<stop  offset="1" style="stop-color:#FFFFFF;stop-opacity:0"/>
</linearGradient>
<path style="fill:url(#SVGID_00000052800470922123871860000005703018335819427739_);" d="M467.54,367.67
	c-5.36,0-137.01-0.35-198.44-0.99c-1.2-9.36-2.46-20.3-3.66-32.62c44.42-0.43,131.42-0.74,162.8-0.92c37.45,0,44.34-0.92,57.54,1.24
	c13.41,2.19,23.5,6.73,26.67,12.23C518.7,357.5,496.67,367.67,467.54,367.67L467.54,367.67z"/>
<path class="st2" d="M493.69,356.62c42.15,0,76.31-34.17,76.31-76.31c0-42.15-34.17-76.31-76.31-76.31
	c-42.14,0-76.31,34.17-76.31,76.31C417.38,322.46,451.54,356.62,493.69,356.62z"/>
<rect x="362" y="343" class="st19" width="6" height="5"/>
<rect x="377" y="343" class="st19" width="5" height="5"/>
<path class="st20" d="M419.35,254.59c0,0,1.42,0.17,2.52-0.12c1.1-0.29,3.12-1.38,3.18-1.86c0.06-0.48-0.4-0.64-0.94-0.52
	c-0.54,0.12-1.83,0.71-1.83,0.71s1.72-2.33,1.87-2.53c0.15-0.2,1.3-1,1.3-1s-0.2-0.96-1.32-0.96c-1.12,0-3.7,0.63-4.27,0.9
	c-0.57,0.26-1.29,1.83-1.29,1.83l-1.22,0.68L419.35,254.59z"/>
<linearGradient id="SVGID_00000135692558168913823510000016083780552973265833_" gradientUnits="userSpaceOnUse" x1="364.3358" y1="248.5092" x2="356.8908" y2="223.5222" gradientTransform="matrix(1 0 0 -1 0 570)">
	<stop  offset="0" style="stop-color:#4E5F6D"/>
	<stop  offset="1" style="stop-color:#768DA0"/>
</linearGradient>
<path style="fill:url(#SVGID_00000135692558168913823510000016083780552973265833_);" d="M384.39,287.2c0,0-1.73,10.99-8.21,30.5
	s-7.35,27.96-7.35,27.96l-7-0.18c0,0-0.11-21.31,2.89-31.12c2.99-9.81,0.57-35.35,0.57-35.35L384.39,287.2z"/>
<linearGradient id="SVGID_00000090991000244054432630000004089579619214526635_" gradientUnits="userSpaceOnUse" x1="376.7757" y1="301.2282" x2="383.6197" y2="224.8652" gradientTransform="matrix(1 0 0 -1 0 570)">
	<stop  offset="0" style="stop-color:#4E5F6D"/>
	<stop  offset="1" style="stop-color:#768DA0"/>
</linearGradient>
<path style="fill:url(#SVGID_00000090991000244054432630000004089579619214526635_);" d="M387.46,279.01c0,0,0.27,16.7-2.49,37.2
	c-2.76,20.51-1.79,29.2-1.79,29.2l-6.71,0.25c0,0-4.05-20.5-2.92-30.76c1.13-10.26-5.56-35.2-5.56-35.2L387.46,279.01z"/>
<path class="st7" d="M373.11,239.55l3.78,2.55l5.45-1.07c-0.08-0.46-0.44-2.34-0.77-4.04c-0.02-0.1-0.04-0.2-0.06-0.3
	c-0.28-1.45-0.53-2.7-0.53-2.7l-5.09-2.31l-1.89-0.86c0,0.03,0.15,1.61,0.17,1.84C374.52,236.76,373.11,239.55,373.11,239.55z"/>
<path class="st7" d="M385.64,268.42c0,0-0.43,0.72,0.48,1.21c0.92,0.49,1.51,1.27,1.3,1.85c-0.21,0.58-2.21,1.52-2.9,1.37
	s-2.11-0.91-1.96-1.21c0.15-0.3-0.96-2.66,0.73-3.57C384.99,267.15,385.64,268.42,385.64,268.42z"/>
<linearGradient id="SVGID_00000001623626042717410030000006166963795340008873_" gradientUnits="userSpaceOnUse" x1="361.8336" y1="319.191" x2="371.063" y2="319.191" gradientTransform="matrix(1 0 0 -1 0 570)">
	<stop  offset="0.1406" style="stop-color:#FF6E42"/>
	<stop  offset="0.5573" style="stop-color:#D847C0"/>
	<stop  offset="0.9271" style="stop-color:#9867F9"/>
</linearGradient>
<path style="fill:url(#SVGID_00000001623626042717410030000006166963795340008873_);" d="M371.06,239.02c0,0-8.75,9.52-9.2,13.47
	c-0.45,3.95,4.54,10.12,4.54,10.12L371.06,239.02z"/>
<linearGradient id="SVGID_00000079476638323232886600000014435243451607790260_" gradientUnits="userSpaceOnUse" x1="373.113" y1="331.4962" x2="384.393" y2="331.4962" gradientTransform="matrix(1 0 0 -1 0 570)">
	<stop  offset="0.1406" style="stop-color:#FF6E42"/>
	<stop  offset="0.5573" style="stop-color:#D847C0"/>
	<stop  offset="0.9271" style="stop-color:#9867F9"/>
</linearGradient>
<path style="fill:url(#SVGID_00000079476638323232886600000014435243451607790260_);" d="M382.05,238.3
	c-0.11-0.03-7.01-1.5-7.75-1.32c-0.75,0.18-1.19,1.23-1.19,1.23l11.28,1.83C384.39,240.04,383.49,238.74,382.05,238.3z"/>
<path class="st25" d="M364.16,280.17c1.1,4.83,19.21,5.37,23.87,0.97c0.53-0.5,0.55-2.83,0.34-5.97c-0.4-6.13-1.68-15.36-1.74-20.07
	c-0.05-2.26-0.32-4.51-0.79-6.72c-0.56-2.73-1.33-5.42-2.31-8.04c0,0-8.85-2.77-10.5-2.29
	C365.06,240.35,363.06,275.33,364.16,280.17z"/>
<path class="st26" d="M388.49,274.91c-0.41-5.9-1.71-14.79-1.77-19.32c-0.05-2.17-0.32-4.34-0.8-6.47l-5.4-0.87
	C380.53,248.25,374.58,269.4,388.49,274.91z"/>
<linearGradient id="SVGID_00000010293734977329442080000016128523933153853341_" gradientUnits="userSpaceOnUse" x1="376.1914" y1="320.473" x2="419.759" y2="320.473" gradientTransform="matrix(1 0 0 -1 0 570)">
	<stop  offset="0.1406" style="stop-color:#FF6E42"/>
	<stop  offset="0.5573" style="stop-color:#D847C0"/>
	<stop  offset="0.9271" style="stop-color:#9867F9"/>
</linearGradient>
<path style="fill:url(#SVGID_00000010293734977329442080000016128523933153853341_);" d="M400.27,251.83l-17.43-10.25
	c-10.66,2.05-6.15,9.74-2.56,13.33l15.9,2.56l23.58-2.56l-1.03-4.1L400.27,251.83z"/>
<path class="st28" d="M376.32,233.68c0.96,1.51,4.54,2.81,6.03,3.29c-0.02-0.08-0.04-0.15-0.05-0.23c-0.24-1.12-0.45-2.09-0.45-2.09
	l-4.37-1.79C376.51,232.86,375.92,233.06,376.32,233.68z"/>
<path class="st7" d="M384.33,234.26c0,0-8.76,2.62-10.39-2.59s-3.86-8.38,1.66-10.27c5.52-1.89,7.23-0.21,8.22,1.4
	C384.82,224.4,386.57,233.44,384.33,234.26z"/>
<path class="st8" d="M383.61,222.9c0,0-0.53,5.82-1.79,5.57s-2.42-0.43-2.23,1.32c0.19,1.75,1.95,3.77-1.96,4.09
	c-3.91,0.32-9.55-9.23-8.49-11.04C372.23,217.61,388.07,216.52,383.61,222.9z"/>
<path class="st6" d="M367.35,347.78c-0.33,0.32-3.48-0.13-5.01-0.4c-0.67-0.96-1.11,0.13-1.25,0.8c0.14,0.54,0.33,1.69,0,2.01
	c-0.33,0.32,0.42,0.67,0.84,0.8H370c1.25,0,2-0.5,1.52-1.21C371.02,349.04,367.77,347.38,367.35,347.78z"/>
<path class="st6" d="M382.35,346.78c-0.33,0.32-3.48-0.13-5.01-0.4c-0.67-0.96-1.11,0.13-1.25,0.8c0.14,0.54,0.33,1.69,0,2.01
	c-0.33,0.32,0.42,0.67,0.84,0.8H385c1.25,0,2-0.5,1.52-1.21C386.02,348.04,382.77,346.38,382.35,346.78z"/>
<linearGradient id="SVGID_00000003095760104176485060000006924325329506352305_" gradientUnits="userSpaceOnUse" x1="147" y1="222.8041" x2="-3.126388e-13" y2="222.8041" gradientTransform="matrix(1 0 0 -1 0 570)">
	<stop  offset="0" style="stop-color:#3A3B7C"/>
	<stop  offset="1" style="stop-color:#CBDBFF;stop-opacity:0"/>
</linearGradient>
<path style="fill:url(#SVGID_00000003095760104176485060000006924325329506352305_);" d="M212.36,356.31H1.03
	C0.61,350.49,0.26,344.49,0,338.3c37.12-0.02,93.15-0.05,99.48-0.07c49.05,0,60.48-0.74,78.86,0.96c18.37,1.7,32.21,5.23,36.55,9.52
	C217.89,351.68,215.77,354.36,212.36,356.31L212.36,356.31z"/>
<path class="st2" d="M144.02,356.55h72.3v-72.3h-72.3V356.55z"/>
<path class="st3" d="M144.02,284.25h72.3l-27.73-17.46h-72.3L144.02,284.25z"/>
<path class="st4" d="M116.39,339.19l27.63,17.36v-72.3l-27.63-17.36V339.19z"/>
<path class="st2" d="M202.95,291.33l-0.23,0.2l5.9,6.87l0.23-0.2L202.95,291.33z"/>
<path class="st2" d="M202.95,296.42l-0.23,0.2l5.9,6.87l0.23-0.2L202.95,296.42z"/>
<path class="st5" d="M116.51,288.33c0.39-1.72-0.61-3.52-0.61-3.52s-1.08-0.57-1.2-0.62c-0.12-0.05,0.35,0.72,0.35,0.72l-1.65,5.35
	l1-0.1C115.43,290.06,116.28,289.33,116.51,288.33L116.51,288.33z"/>
<path class="st5" d="M110.39,284.95l-1.32,0.18c0,0-2.75-0.1-3.3,0.08c-0.55,0.18-1.6,1.11-1.43,2.61c0.05,0.47,0.18,0.88,0.33,1.22
	c0.31,0.69-1.26,1.4-0.52,1.23l4.32-0.78c0.33,1.29,1.08,1.66,1.08,1.66l5.57-0.74l0.45-5.81L110.39,284.95z"/>
<path class="st8" d="M115.97,284.81c0,0-0.1-1.6-1.54-1.86c-1.44-0.26-2.11,0.5-2.52,0.55c-0.42,0.06-3.26,0.06-2.83,2l4.7,0.06
	l1.77-0.87L115.97,284.81z"/>
<path class="st5" d="M112.92,285.22c-0.07-0.62-0.63-1.07-1.25-1.01c-0.62,0.06-1.08,0.62-1.01,1.24c0.07,0.62,0.63,1.08,1.25,1.01
	C112.54,286.4,112.99,285.84,112.92,285.22z"/>
<path class="st9" d="M112.28,285.33c0.11-0.26-0.02-0.54-0.02-0.55c-0.01-0.02-0.03-0.02-0.04-0.02c-0.02,0.01-0.02,0.03-0.02,0.04
	c0,0,0.12,0.27,0.02,0.5c-0.05,0.11-0.13,0.19-0.25,0.26c0.06-0.12,0.14-0.36-0.04-0.59c-0.12-0.16-0.33-0.21-0.54-0.12
	c-0.17,0.07-0.33,0.24-0.31,0.48v0.01c0,0.02,0.02,0.03,0.04,0.03c0.02,0,0.03-0.02,0.03-0.03c0,0,0,0,0-0.01
	c-0.02-0.22,0.13-0.36,0.27-0.41c0.13-0.05,0.33-0.06,0.46,0.11c0.23,0.3,0,0.59-0.01,0.6l-0.07,0.09l0.11-0.04
	C112.09,285.59,112.22,285.48,112.28,285.33L112.28,285.33z"/>
<path class="st9" d="M109.47,286.16c0,0-2.69,0.32-2.6,3.51l1.64-0.3C108.51,289.36,107.88,287.35,109.47,286.16z"/>
<path class="st5" d="M108.71,285.12l0.02,0.75l2.13-0.21l0-0.53L108.71,285.12z"/>
<path class="st8" d="M118.6,291.33c0,0,2.5-0.05,1.63-1.96c-0.87-1.91-1.02-5.65-3.18-6.41c-2.16-0.76-2.83,3.01-2.83,3.01
	s0.88,6.6,2.66,6.77C118.66,292.9,118.6,291.33,118.6,291.33L118.6,291.33z"/>
<path class="st8" d="M114.53,285.2c-0.03-0.05-0.63-0.96-0.6-0.84c0.03,0.12,0.07,1.08,0.07,1.08l-1.04,0.1c0,0-0.57,0.46-1.36,0.41
	c0,0-0.08,0.3,0.17,0.33c0.25,0.03,1.91-0.45,2.28,0.11C114.42,286.95,114.55,285.25,114.53,285.2L114.53,285.2z"/>
<path class="st30" d="M108.09,295.47l-4.71-10.29l0.11-0.05l4.68,10.22l12.27-0.17v0.12L108.09,295.47z"/>
<path class="st5" d="M57.48,341.12l2.84-2.92c0,0-2.59-0.73-2.69-0.71c-0.1,0.03-2.32,0.73-2.32,0.73s-0.61,1.03-0.58,1.44
	c0.03,0.41,0.26,1.39,0.72,1.65c0.46,0.27,0.54,0.46,0.95,0.32C56.81,341.49,57.48,341.12,57.48,341.12z"/>
<path class="st5" d="M80.69,345.86l-3.59,0.01l-0.01-1.19l1.41-4.4l4.17,0.56L80.69,345.86z"/>
<path class="st6" d="M75.69,311.4c0,0,6.74,6.21,12.34,7.79l-10.84,19.94c0,0,2.26,2.55,6.01,2.55c0,0,14.83-22.81,14.84-25.47
	c0-1.91-12.82-10.84-12.82-10.84l-9.53,2.9V311.4L75.69,311.4z"/>
<path class="st31" d="M54.74,337.92l18.71-39.11l5.54-0.43l5.08,7.14c0,0-2.15,3.82-5.61,7.75c-3.46,3.93-7.48,7.46-11.74,15.56
	c-4.26,8.1-6.88,12.84-6.88,12.84S56.79,340.18,54.74,337.92L54.74,337.92z"/>
<path class="st5" d="M124.25,292.88c0.73-0.71,1.93-2.04,2.27-2.63v0c0.03-0.06,0.06-0.11,0.07-0.15c0,0,0,0,0,0
	c0-0.01,0.01-0.02,0.01-0.03c0.05-0.19,0.12-0.4,0.22-0.61c0.22-0.71,0.35-1.47,0.46-1.68c0.11-0.19,0.52-0.39,0.79-0.51
	c0.22-0.1,0.36-0.34,0.31-0.57c-0.03-0.14-0.11-0.27-0.32-0.35c0,0,0.24-0.64-0.35-0.77c0,0,0.27-0.7-0.69-0.67
	c0,0-0.04-0.42-0.49-0.46c-0.45-0.05-1.46,0.28-1.61,0.39c-0.15,0.11-1.8,2.02-1.8,2.02s-1.56,2.69-1.68,2.81L124.25,292.88
	L124.25,292.88z"/>
<linearGradient id="SVGID_00000075141048490106381380000004063943824289519015_" gradientUnits="userSpaceOnUse" x1="84.5845" y1="282.2054" x2="97.4442" y2="269.3882" gradientTransform="matrix(1 0 0 -1 0 570)">
	<stop  offset="0.4479" style="stop-color:#FF6E42"/>
	<stop  offset="0.7552" style="stop-color:#FF38DE"/>
	<stop  offset="1" style="stop-color:#9867F9"/>
</linearGradient>
<path style="fill:url(#SVGID_00000075141048490106381380000004063943824289519015_);" d="M84.08,312.58c-5-2.37-3.14-6.58-6.01-9.97
	c-0.99-1.17-4.23-4.03-4.23-4.03s27.01-17.02,30.86-16.2c0,0,2.65,0.56,1.82,4.28c-0.32,1.46-1.18,4.19-2.11,6.97
	c-4.75,3.39-8.73,6.21-9.21,8.11c-0.45,0.19-3.85,2.77-4.39,3.05C89.11,305.64,84.08,312.58,84.08,312.58L84.08,312.58z"/>
<linearGradient id="SVGID_00000085931231502030089540000017676527299007433601_" gradientUnits="userSpaceOnUse" x1="96.0205" y1="274.3422" x2="122.9734" y2="281.6161" gradientTransform="matrix(1 0 0 -1 0 570)">
	<stop  offset="0.1406" style="stop-color:#FF6E42"/>
	<stop  offset="0.5573" style="stop-color:#D847C0"/>
	<stop  offset="0.9271" style="stop-color:#9867F9"/>
</linearGradient>
<path style="fill:url(#SVGID_00000085931231502030089540000017676527299007433601_);" d="M101.02,285.69l8.24,7.05l13.1-5.39
	l1.8,5.39c0,0-12.24,8.76-16.41,7.98c-4.17-0.78-12.72-8.76-12.72-8.76L101.02,285.69z"/>
<path class="st6" d="M76.61,346.41h3.79l1.54-1.67l2.81,1.67h0.61c0.21,0,0.4,0.14,0.44,0.35c0.05,0.28-0.16,0.52-0.42,0.52h-8.81
	c-0.06,0-0.12-0.05-0.12-0.12v-0.57C76.44,346.49,76.52,346.41,76.61,346.41L76.61,346.41z"/>
<path class="st6" d="M76.64,346.42v-1.55c0,0,0.64-0.86,1.61-0.42c0,0,1.47,1.04,2.76-0.22l3.22,1.43c0,0,0.88,0.29,1.12,0.77H76.64
	L76.64,346.42z"/>
<path class="st6" d="M59.49,345.42l-3.84,0.17l-2.5-5.82c-0.13-0.29,0.06-0.62,0.37-0.67l1.75-0.29c0,0,0.29,2.49,2.26,2.98
	l-0.24,1.99c0.94,0.31,1.17,0.23,2.17,0.7C60.01,344.74,59.49,345.42,59.49,345.42L59.49,345.42z"/>
<rect x="139" y="218" class="st17" width="43" height="43"/>
<path class="st34" d="M175.82,321.46h4.09l-2.16-3.64l-3.97,6.57h-1.81l4.83-7.89c0.11-0.16,0.25-0.29,0.41-0.38
	c0.16-0.09,0.34-0.14,0.53-0.14c0.18,0,0.37,0.04,0.53,0.13s0.3,0.21,0.41,0.37l4.84,7.9h-1.81l-0.85-1.47h-4.14L175.82,321.46
	 M194.6,322.93v-6.85h-1.53v7.52c0,0.11,0.02,0.21,0.06,0.3c0.04,0.1,0.1,0.18,0.17,0.26c0.07,0.08,0.16,0.14,0.26,0.18
	c0.1,0.04,0.2,0.06,0.3,0.06h6.98l0.91-1.47L194.6,322.93 M169.22,321.71c0.72,0,1.4-0.3,1.91-0.82c0.51-0.53,0.79-1.24,0.79-1.99
	s-0.28-1.46-0.79-1.99c-0.51-0.53-1.19-0.82-1.91-0.82h-6.71v8.32h1.53v-6.85h5.08c0.34,0,0.67,0.14,0.91,0.39
	c0.24,0.25,0.38,0.59,0.38,0.95c0,0.36-0.14,0.7-0.38,0.95c-0.24,0.25-0.57,0.39-0.91,0.39h-4.32l4.58,4.15h2.22l-3.07-2.69H169.22z
	 M153.09,324.4h4.63c1.04-0.03,2.03-0.48,2.75-1.26c0.73-0.78,1.13-1.82,1.13-2.9c0-1.08-0.41-2.13-1.13-2.9
	c-0.72-0.78-1.71-1.23-2.75-1.26h-4.63c-0.53-0.01-1.06,0.08-1.56,0.29c-0.5,0.2-0.95,0.51-1.33,0.89
	c-0.38,0.39-0.68,0.85-0.89,1.36c-0.21,0.51-0.31,1.06-0.31,1.62c0,0.56,0.11,1.11,0.31,1.62c0.21,0.51,0.51,0.98,0.89,1.36
	c0.38,0.39,0.83,0.69,1.33,0.89C152.03,324.32,152.56,324.41,153.09,324.4z M157.62,322.93h-4.43c-0.67-0.02-1.3-0.32-1.77-0.82
	c-0.47-0.5-0.73-1.17-0.73-1.87c0-0.7,0.26-1.37,0.73-1.87c0.47-0.5,1.1-0.8,1.77-0.82h4.43c0.35-0.01,0.69,0.05,1.01,0.18
	c0.32,0.13,0.62,0.33,0.87,0.58c0.25,0.25,0.45,0.55,0.58,0.88c0.14,0.33,0.21,0.69,0.21,1.05c0,0.36-0.07,0.72-0.21,1.05
	c-0.13,0.33-0.33,0.63-0.58,0.88c-0.25,0.25-0.54,0.45-0.87,0.58C158.31,322.89,157.96,322.95,157.62,322.93z M186.73,324.4h4.73
	l0.9-1.46h-5.52c-0.35,0.01-0.69-0.05-1.01-0.18c-0.32-0.13-0.62-0.33-0.87-0.58c-0.25-0.25-0.45-0.55-0.58-0.88
	c-0.13-0.33-0.2-0.69-0.2-1.05c0-0.36,0.07-0.72,0.2-1.05c0.13-0.33,0.33-0.63,0.58-0.88c0.25-0.25,0.54-0.45,0.87-0.58
	c0.32-0.13,0.67-0.19,1.01-0.18h4.49l0.91-1.47h-5.5c-0.53-0.01-1.06,0.08-1.56,0.29c-0.5,0.2-0.95,0.51-1.33,0.89
	c-0.38,0.39-0.68,0.85-0.89,1.36c-0.21,0.51-0.31,1.06-0.31,1.62c0,0.56,0.11,1.11,0.31,1.62c0.21,0.51,0.51,0.98,0.89,1.36
	c0.38,0.39,0.83,0.69,1.33,0.89C185.67,324.32,186.2,324.41,186.73,324.4z M205.48,322.93c-0.56,0-1.11-0.19-1.56-0.54
	c-0.45-0.35-0.77-0.85-0.93-1.42h6.55l0.9-1.47h-7.45c0.15-0.56,0.48-1.06,0.93-1.42c0.45-0.35,0.99-0.54,1.56-0.54h4.5l0.9-1.47
	h-5.5c-1.04,0.03-2.03,0.48-2.75,1.26c-0.73,0.78-1.13,1.82-1.13,2.9c0,1.08,0.41,2.13,1.13,2.9c0.72,0.78,1.71,1.23,2.75,1.26h4.73
	l0.9-1.46L205.48,322.93"/>
<g id="Yugabyte-Logomark-RGB_00000087374150914337956780000011598327520078314421_">
	<g>
		<defs>
			<rect id="SVGID_00000086681093509149873060000018418050070827069593_" x="454.09" y="244.31" width="79.19" height="72.01"/>
		</defs>
		<clipPath id="SVGID_00000106848776220952997150000005241505293483492793_">
			<use xlink:href="#SVGID_00000086681093509149873060000018418050070827069593_"  style="overflow:visible;"/>
		</clipPath>
		<g style="clip-path:url(#SVGID_00000106848776220952997150000005241505293483492793_);">
			<defs>
				<rect id="SVGID_00000159454511636934951570000002947243327419114149_" x="454.09" y="244.31" width="79.19" height="72.01"/>
			</defs>
			<clipPath id="SVGID_00000130632594028103603530000018409806844357738372_">
				<use xlink:href="#SVGID_00000159454511636934951570000002947243327419114149_"  style="overflow:visible;"/>
			</clipPath>
			<path style="clip-path:url(#SVGID_00000130632594028103603530000018409806844357738372_);fill:#FF5F3B;" d="M475.32,244.31
				c1.81,0,2.71,0,3.4,0.35c0.61,0.31,1.1,0.8,1.41,1.41c0.35,0.69,0.35,1.6,0.35,3.4v22.72c0,2.7,0,4.04-0.57,4.87
				c-0.5,0.72-1.26,1.21-2.13,1.36c-0.99,0.17-2.21-0.4-4.65-1.54l-6.36-2.97c-4.6-2.14-6.89-3.21-8.57-4.87
				c-1.49-1.46-2.62-3.24-3.32-5.21c-0.79-2.22-0.79-4.76-0.79-9.83v-4.53c0-1.81,0-2.71,0.35-3.4c0.31-0.61,0.8-1.1,1.41-1.41
				c0.69-0.35,1.6-0.35,3.4-0.35H475.32z"/>
			<path style="clip-path:url(#SVGID_00000130632594028103603530000018409806844357738372_);fill:#FF5F3B;" d="M528.12,244.31
				c1.81,0,2.71,0,3.4,0.35c0.61,0.31,1.1,0.8,1.41,1.41c0.35,0.69,0.35,1.6,0.35,3.4v4.54c0,5.07,0,7.61-0.79,9.83
				c-0.7,1.97-1.83,3.75-3.32,5.21c-1.68,1.65-3.98,2.72-8.57,4.87l-13.72,6.4v-30.83c0-1.81,0-2.71,0.35-3.4
				c0.31-0.61,0.8-1.1,1.41-1.41c0.69-0.35,1.6-0.35,3.4-0.35H528.12z"/>
			<path style="clip-path:url(#SVGID_00000130632594028103603530000018409806844357738372_);fill:#FF5F3B;" d="M506.89,280.31v30.84
				c0,1.81,0,2.71-0.35,3.4c-0.31,0.61-0.8,1.1-1.41,1.41c-0.69,0.35-1.6,0.35-3.4,0.35h-16.06c-1.81,0-2.71,0-3.4-0.35
				c-0.61-0.31-1.1-0.8-1.41-1.41c-0.35-0.69-0.35-1.6-0.35-3.4v-4.54c0-5.07,0-7.61,0.79-9.83c0.7-1.97,1.83-3.75,3.32-5.21
				c1.68-1.65,3.98-2.72,8.57-4.87L506.89,280.31z"/>
		</g>
	</g>
</g>
<linearGradient id="SVGID_00000152949626360489198350000014476875205999230624_" gradientUnits="userSpaceOnUse" x1="402.0906" y1="204.8131" x2="511.0906" y2="305.8131" gradientTransform="matrix(1 0 0 -1 0 570)">
	<stop  offset="0" style="stop-color:#A2B9F0"/>
	<stop  offset="0.8385" style="stop-color:#BDCEF7;stop-opacity:0"/>
</linearGradient>
<path style="fill:url(#SVGID_00000152949626360489198350000014476875205999230624_);" d="M517.61,322.39
	c-42.14,0-76.31-34.17-76.31-76.31c0-8.72,1.47-17.11,4.17-24.91c-17.14,13.99-28.09,35.29-28.09,59.14
	c0,42.14,34.16,76.31,76.31,76.31c33.42,0,61.82-21.49,72.15-51.39C552.69,315.96,535.91,322.4,517.61,322.39L517.61,322.39z"/>
</svg>
